<?xml version="1.0" encoding="UTF-8"?><svg id="Layer_1" xmlns="http://www.w3.org/2000/svg" viewBox="0 0 503 503"><defs><style>.cls-1{fill:#fff;}.cls-2{fill:#06f;}</style></defs><rect class="cls-2" width="503" height="503"/><path class="cls-1" d="M53.79,264.67c.52,8.19,8.71,12.09,17.94,12.09,6.76,0,12.22-.91,17.55-2.73l2.6,13.39c-6.5,2.73-14.43,4.03-23.01,4.03-21.58,0-33.93-12.48-33.93-32.37,0-16.12,10.01-33.93,32.11-33.93,20.54,0,28.34,15.99,28.34,31.72,0,3.38-.39,6.37-.65,7.8h-40.95ZM77.06,251.15c0-4.81-2.08-12.87-11.18-12.87-8.32,0-11.7,7.67-12.22,12.87h23.4Z"/><path class="cls-1" d="M107.22,246.86c0-7.93-.26-14.56-.52-20.28h17.16l.91,8.84h.39c2.6-4.16,8.97-10.27,19.63-10.27,13,0,22.75,8.71,22.75,27.43v37.57h-19.76v-35.23c0-8.19-2.86-13.78-10.01-13.78-5.46,0-8.71,3.77-10.14,7.41-.52,1.3-.65,3.12-.65,4.94v36.66h-19.76v-43.29Z"/><path class="cls-1" d="M245.02,197.85v73.32c0,7.15.26,14.69.52,18.98h-17.55l-.78-9.23h-.39c-3.9,7.02-11.7,10.66-19.89,10.66-15.08,0-27.17-12.87-27.17-32.63-.13-21.45,13.26-33.93,28.47-33.93,7.93,0,13.91,2.86,16.77,7.15h.26v-34.32h19.76ZM225.26,253.49c0-1.04,0-2.47-.26-3.64-1.17-5.2-5.46-9.62-11.57-9.62-9.1,0-13.65,8.06-13.65,18.07,0,10.79,5.33,17.55,13.52,17.55,5.72,0,10.4-3.9,11.57-9.49.26-1.43.39-2.99.39-4.55v-8.32Z"/><path class="cls-1" d="M313.79,274.81c0,5.98.26,11.83,1.04,15.34h-17.81l-1.17-6.37h-.39c-4.16,5.07-10.66,7.8-18.2,7.8-12.87,0-20.54-9.36-20.54-19.5,0-16.51,14.82-24.31,37.31-24.31v-.78c0-3.51-1.82-8.32-11.57-8.32-6.5,0-13.39,2.21-17.55,4.81l-3.64-12.74c4.42-2.47,13.13-5.72,24.7-5.72,21.19,0,27.82,12.48,27.82,27.56v22.23ZM294.68,260.12c-10.4,0-18.46,2.47-18.46,10.01,0,5.07,3.38,7.54,7.8,7.54,4.81,0,8.97-3.25,10.27-7.28.26-1.04.39-2.21.39-3.38v-6.89Z"/><path class="cls-1" d="M350.58,209.42v17.16h14.17v14.56h-14.17v23.01c0,7.67,1.95,11.18,7.8,11.18,2.73,0,4.03-.13,5.85-.52l.13,14.95c-2.47.91-7.28,1.69-12.74,1.69-6.37,0-11.7-2.21-14.95-5.46-3.64-3.77-5.46-9.88-5.46-18.85v-26h-8.45v-14.56h8.45v-11.83l19.37-5.33Z"/><path class="cls-1" d="M396.6,208.9c0,5.46-4.03,9.88-10.66,9.88-6.24,0-10.27-4.42-10.27-9.88s4.16-9.88,10.53-9.88,10.27,4.29,10.4,9.88ZM376.19,290.16v-63.57h19.76v63.57h-19.76Z"/><path class="cls-1" d="M426.89,226.58l6.24,10.66c1.82,3.25,3.51,6.37,5.2,9.49h.26c1.69-3.51,3.25-6.63,4.94-9.75l5.59-10.4h21.45l-20.93,30.29,21.19,33.28h-22.36l-6.37-11.44c-1.82-3.12-3.38-6.37-4.94-9.62h-.39c-1.56,3.38-3.25,6.5-4.81,9.62l-5.98,11.44h-21.71l21.58-32.37-21.06-31.2h22.1Z"/><path class="cls-1" d="M306.21,335.23c2.94-1.87,6.41-2.81,10.41-2.81s7.38.9,10.45,2.69c3.07,1.79,5.47,4.34,7.21,7.64,1.74,3.3,2.61,7.14,2.61,11.5s-.87,8.22-2.61,11.54c-1.74,3.33-4.16,5.9-7.25,7.72-3.09,1.82-6.57,2.73-10.41,2.73-4.06,0-7.55-.92-10.49-2.77s-5.08-4.25-6.43-7.22v9.36h-5.38v-57.72h5.38v24.57c1.4-2.96,3.58-5.38,6.51-7.25ZM329.3,345.09c-1.38-2.57-3.26-4.54-5.65-5.89-2.39-1.35-5.1-2.03-8.11-2.03s-5.58.7-8,2.11c-2.42,1.4-4.33,3.41-5.73,6.01-1.4,2.6-2.11,5.62-2.11,9.05s.7,6.45,2.11,9.05c1.4,2.6,3.31,4.6,5.73,6.01,2.42,1.4,5.08,2.11,8,2.11s5.72-.69,8.11-2.07c2.39-1.38,4.28-3.38,5.65-6.01,1.38-2.62,2.07-5.68,2.07-9.17s-.69-6.59-2.07-9.17Z"/><path class="cls-1" d="M385.34,356.44h-35.33c.16,3.23.94,5.98,2.34,8.27,1.4,2.29,3.25,4.02,5.54,5.19,2.29,1.17,4.78,1.76,7.49,1.76,3.54,0,6.51-.86,8.93-2.57s4.02-4.03,4.8-6.94h5.77c-1.04,4.16-3.26,7.55-6.67,10.18-3.41,2.63-7.68,3.94-12.83,3.94-4,0-7.59-.9-10.76-2.69-3.17-1.79-5.66-4.34-7.45-7.64-1.79-3.3-2.69-7.16-2.69-11.58s.88-8.29,2.65-11.62c1.77-3.33,4.24-5.88,7.41-7.64,3.17-1.77,6.79-2.65,10.84-2.65s7.61.88,10.65,2.65c3.04,1.77,5.38,4.15,7.02,7.14,1.64,2.99,2.46,6.31,2.46,9.95,0,1.87-.05,3.3-.16,4.29ZM378.05,343.88c-1.33-2.24-3.13-3.93-5.42-5.07-2.29-1.14-4.79-1.72-7.49-1.72-4.06,0-7.51,1.3-10.37,3.9-2.86,2.6-4.45,6.27-4.76,11h29.95c.05-3.17-.58-5.88-1.91-8.11Z"/><path class="cls-1" d="M402.58,337.64v26.44c0,2.6.49,4.39,1.48,5.38.99.99,2.73,1.48,5.23,1.48h4.99v4.68h-5.85c-3.85,0-6.71-.9-8.58-2.69s-2.81-4.74-2.81-8.85v-26.44h-5.93v-4.6h5.93v-10.69h5.54v10.69h11.7v4.6h-11.7Z"/><path class="cls-1" d="M423.37,342.75c1.74-3.3,4.16-5.85,7.25-7.64,3.09-1.79,6.59-2.69,10.49-2.69s7.55.94,10.49,2.81c2.94,1.87,5.06,4.26,6.36,7.18v-9.36h5.46v42.59h-5.46v-9.44c-1.35,2.91-3.5,5.32-6.44,7.22-2.94,1.9-6.43,2.85-10.49,2.85s-7.32-.91-10.41-2.73c-3.09-1.82-5.51-4.39-7.25-7.72-1.74-3.33-2.61-7.18-2.61-11.54s.87-8.2,2.61-11.5ZM455.85,345.29c-1.4-2.6-3.31-4.6-5.73-6.01-2.42-1.4-5.08-2.11-8-2.11s-5.72.68-8.11,2.03c-2.39,1.35-4.28,3.31-5.66,5.89s-2.07,5.63-2.07,9.17.69,6.54,2.07,9.17c1.38,2.63,3.26,4.63,5.66,6.01,2.39,1.38,5.1,2.07,8.11,2.07s5.58-.7,8-2.11c2.42-1.4,4.33-3.41,5.73-6.01,1.4-2.6,2.11-5.62,2.11-9.05s-.7-6.45-2.11-9.05Z"/></svg>